# xmcd
#
# Track frame offsets:
#	150
#	37225
#	60307
#	92727
#	119022
#
# Disc length: 2442 seconds
#
# Revision: 2
# Processed by: cddbd v1.5.2PL0 Copyright (c) Steve Scherf et al.
# Submitted via: audiograbber 1.83.01
#
DISCID=41098805
DTITLE=War - Galaxy
DYEAR=1993
DGENRE=
TTITLE0=Galaxy
TTITLE1=Baby Face (She Said Do Do Do Do)
TTITLE2=Sweet Fighting Lady
TTITLE3=Hey Senorita
TTITLE4=The SevenTin Soldiers
EXTD=
EXTT0=
EXTT1=
EXTT2=
EXTT3=
EXTT4=
PLAYORDER=
